<svg class="diagram-root" style="background: #f5f6f6" xmlns="http://www.w3.org/2000/svg" xmlns:xlink="http://www.w3.org/1999/xlink"><style>.diagram-root { font-family: "Helvetica Neue", sans-serif; font-size: 12px; } .t { overflow: visible; } .t-bg { y: 40; fill: #fff;   } .th { fill: #005aa0;   } .tht { fill: #fff; font-size: 14px;  } .tf { fill: #323c46; overflow: visible; } .tf.pk { fill: #005aa0; font-weight: bold; } .tf.fk { font-weight: bold; } .ty { fill: #adb1b5; font-weight: normal; text-anchor: end; } .r { fill: transparent; stroke: #c3c3c3; stroke-width: 1; } .l { stroke: 1; } .i { fill: #c2c7ce; stroke: #c2c7ce; } .i.ix { fill: #afb3b6; stroke: #000; } .fa { fill: transparent; overflow: visible; } .fa .bg.hover { fill: #f7f7f7; } .c { cy: 12; r: 4; stroke: #d2d2dc; fill: #d2d2dc; } .hr { fill: transparent; stroke: #323c46; stroke-opacity: 0.035; stroke-width: 13; } .dc { stroke: #fa5a3c; fill: #fa5a3c; } .x { stroke: white; stroke-width: 1; } .hl .th { fill: #1b9bff; } .hl .tht {  } .fhl .bg { fill: #e7f4ff; } .fhls .bg {  } .r.hl { stroke: #1b9bff; } .dim { opacity: 0.25; }</style><g class="drawing-wrapper" transform="translate(91.8855555555556, 116.88666666666703) scale(1,1)"><g class="rs"><path d="M 758.34 283.89 m -1, 0 a 1,1 0 1,0 2,0 a 1,1 0 1,0 -2,0 M 758.34 283.89 m -0.5, 0 a 0.5,0.5 0 1,0 1,0 a 0.5,0.5 0 1,0 -1,0  M758.34 283.89 L758.34 283.89 746.34 283.89 M 758.34 289.89 m -1, 0 a 1,1 0 1,0 2,0 a 1,1 0 1,0 -2,0 M 758.34 289.89 m -0.5, 0 a 0.5,0.5 0 1,0 1,0 a 0.5,0.5 0 1,0 -1,0  M758.34 289.89 L758.34 289.89 751.34 283.89 758.34 277.89 M 758.34 277.89 m -1, 0 a 1,1 0 1,0 2,0 a 1,1 0 1,0 -2,0 M 758.34 277.89 m -0.5, 0 a 0.5,0.5 0 1,0 1,0 a 0.5,0.5 0 1,0 -1,0  M746.34 283.89 Q 714.77 283.89, 683.19 405.78 T 620.03 527.6600000000001 M 608.03 527.6600000000001 m -1, 0 a 1,1 0 1,0 2,0 a 1,1 0 1,0 -2,0 M 608.03 527.6600000000001 m -0.5, 0 a 0.5,0.5 0 1,0 1,0 a 0.5,0.5 0 1,0 -1,0  M608.03 527.6600000000001 L608.03 527.6600000000001 620.03 527.6600000000001 M614.03 533.6600000000001 L614.03 533.6600000000001 614.03 521.6600000000001" id="h133153459" class="r"></path><path d="M 661.93 -27 m -1, 0 a 1,1 0 1,0 2,0 a 1,1 0 1,0 -2,0 M 661.93 -27 m -0.5, 0 a 0.5,0.5 0 1,0 1,0 a 0.5,0.5 0 1,0 -1,0  M661.93 -27 L661.93 -27 673.93 -27 M 661.93 -21 m -1, 0 a 1,1 0 1,0 2,0 a 1,1 0 1,0 -2,0 M 661.93 -21 m -0.5, 0 a 0.5,0.5 0 1,0 1,0 a 0.5,0.5 0 1,0 -1,0  M661.93 -21 L661.93 -21 668.93 -27 661.93 -33 M 661.93 -33 m -1, 0 a 1,1 0 1,0 2,0 a 1,1 0 1,0 -2,0 M 661.93 -33 m -0.5, 0 a 0.5,0.5 0 1,0 1,0 a 0.5,0.5 0 1,0 -1,0  M673.93 -27 Q 692.04 -27, 710.14 115.95 T 746.34 258.89 M 758.34 258.89 m -1, 0 a 1,1 0 1,0 2,0 a 1,1 0 1,0 -2,0 M 758.34 258.89 m -0.5, 0 a 0.5,0.5 0 1,0 1,0 a 0.5,0.5 0 1,0 -1,0  M758.34 258.89 L758.34 258.89 746.34 258.89 M752.34 264.89 L752.34 264.89 752.34 252.89" id="h221257298" class="r"></path><path d="M 213.22 -29.89 m -1, 0 a 1,1 0 1,0 2,0 a 1,1 0 1,0 -2,0 M 213.22 -29.89 m -0.5, 0 a 0.5,0.5 0 1,0 1,0 a 0.5,0.5 0 1,0 -1,0  M213.22 -29.89 L213.22 -29.89 201.22 -29.89 M 213.22 -23.89 m -1, 0 a 1,1 0 1,0 2,0 a 1,1 0 1,0 -2,0 M 213.22 -23.89 m -0.5, 0 a 0.5,0.5 0 1,0 1,0 a 0.5,0.5 0 1,0 -1,0  M213.22 -23.89 L213.22 -23.89 206.22 -29.89 213.22 -35.89 M 213.22 -35.89 m -1, 0 a 1,1 0 1,0 2,0 a 1,1 0 1,0 -2,0 M 213.22 -35.89 m -0.5, 0 a 0.5,0.5 0 1,0 1,0 a 0.5,0.5 0 1,0 -1,0  M201.22 -29.89 Q 173.79 -29.89, 146.36 56 T 91.5 141.89 M 79.5 141.89 m -1, 0 a 1,1 0 1,0 2,0 a 1,1 0 1,0 -2,0 M 79.5 141.89 m -0.5, 0 a 0.5,0.5 0 1,0 1,0 a 0.5,0.5 0 1,0 -1,0  M79.5 141.89 L79.5 141.89 91.5 141.89 M85.5 147.89 L85.5 147.89 85.5 135.89" id="h3102077576" class="r"></path><path d="M 375.41 -4.890000000000001 m -1, 0 a 1,1 0 1,0 2,0 a 1,1 0 1,0 -2,0 M 375.41 -4.890000000000001 m -0.5, 0 a 0.5,0.5 0 1,0 1,0 a 0.5,0.5 0 1,0 -1,0  M375.41 -4.890000000000001 L375.41 -4.890000000000001 387.41 -4.890000000000001 M 375.41 1.1099999999999994 m -1, 0 a 1,1 0 1,0 2,0 a 1,1 0 1,0 -2,0 M 375.41 1.1099999999999994 m -0.5, 0 a 0.5,0.5 0 1,0 1,0 a 0.5,0.5 0 1,0 -1,0  M375.41 1.1099999999999994 L375.41 1.1099999999999994 382.41 -4.890000000000001 375.41 -10.89 M 375.41 -10.89 m -1, 0 a 1,1 0 1,0 2,0 a 1,1 0 1,0 -2,0 M 375.41 -10.89 m -0.5, 0 a 0.5,0.5 0 1,0 1,0 a 0.5,0.5 0 1,0 -1,0  M387.41 -4.890000000000001 Q 477.15 -4.890000000000001, 566.88 127 T 746.34 258.89 M 758.34 258.89 m -1, 0 a 1,1 0 1,0 2,0 a 1,1 0 1,0 -2,0 M 758.34 258.89 m -0.5, 0 a 0.5,0.5 0 1,0 1,0 a 0.5,0.5 0 1,0 -1,0  M758.34 258.89 L758.34 258.89 746.34 258.89 M752.34 264.89 L752.34 264.89 752.34 252.89" id="h175481269" class="r"></path><path d="M 395.63 254.89 m -1, 0 a 1,1 0 1,0 2,0 a 1,1 0 1,0 -2,0 M 395.63 254.89 m -0.5, 0 a 0.5,0.5 0 1,0 1,0 a 0.5,0.5 0 1,0 -1,0  M395.63 254.89 L395.63 254.89 407.63 254.89 M 395.63 260.89 m -1, 0 a 1,1 0 1,0 2,0 a 1,1 0 1,0 -2,0 M 395.63 260.89 m -0.5, 0 a 0.5,0.5 0 1,0 1,0 a 0.5,0.5 0 1,0 -1,0  M395.63 260.89 L395.63 260.89 402.63 254.89 395.63 248.89 M 395.63 248.89 m -1, 0 a 1,1 0 1,0 2,0 a 1,1 0 1,0 -2,0 M 395.63 248.89 m -0.5, 0 a 0.5,0.5 0 1,0 1,0 a 0.5,0.5 0 1,0 -1,0  M407.63 254.89 Q 492.31 254.89, 576.99 256.89 T 746.34 258.89 M 758.34 258.89 m -1, 0 a 1,1 0 1,0 2,0 a 1,1 0 1,0 -2,0 M 758.34 258.89 m -0.5, 0 a 0.5,0.5 0 1,0 1,0 a 0.5,0.5 0 1,0 -1,0  M758.34 258.89 L758.34 258.89 746.34 258.89 M752.34 264.89 L752.34 264.89 752.34 252.89" id="h219041670" class="r"></path><path d="M 226.44 279.89 m -1, 0 a 1,1 0 1,0 2,0 a 1,1 0 1,0 -2,0 M 226.44 279.89 m -0.5, 0 a 0.5,0.5 0 1,0 1,0 a 0.5,0.5 0 1,0 -1,0  M226.44 279.89 L226.44 279.89 214.44 279.89 M 226.44 285.89 m -1, 0 a 1,1 0 1,0 2,0 a 1,1 0 1,0 -2,0 M 226.44 285.89 m -0.5, 0 a 0.5,0.5 0 1,0 1,0 a 0.5,0.5 0 1,0 -1,0  M226.44 285.89 L226.44 285.89 219.44 279.89 226.44 273.89 M 226.44 273.89 m -1, 0 a 1,1 0 1,0 2,0 a 1,1 0 1,0 -2,0 M 226.44 273.89 m -0.5, 0 a 0.5,0.5 0 1,0 1,0 a 0.5,0.5 0 1,0 -1,0  M214.44 279.89 Q 183.71 279.89, 152.97 210.89 T 91.5 141.89 M 79.5 141.89 m -1, 0 a 1,1 0 1,0 2,0 a 1,1 0 1,0 -2,0 M 79.5 141.89 m -0.5, 0 a 0.5,0.5 0 1,0 1,0 a 0.5,0.5 0 1,0 -1,0  M79.5 141.89 L79.5 141.89 91.5 141.89 M85.5 147.89 L85.5 147.89 85.5 135.89" id="h2784726141" class="r"></path></g><g class="hrs"></g><g class="ts"><svg width="149.39" height="100" x="-69.89" y="84.89" id="h3708248841" class="t"><rect height="40" width="149.39" class="th"></rect><text x="13" y="25" class="tht">Departments</text><rect height="60" width="149.39" class="t-bg"></rect><text x="13" y="61" class="tf pk">dept_no<tspan x="136.39" class="ty">varchar</tspan></text><path d="M7,14A2,2 0 0,1 5,12A2,2 0 0,1 7,10A2,2 0 0,1 9,12A2,2 0 0,1 7,14M12.65,10C11.83,7.67 9.61,6 7, 6A6, 6 0 0, 0 1, 12A6, 6 0 0, 0 7, 18C9.61, 18 11.83, 16.33 12.65, 14H17V18H21V14H23V10H12.65Z" class="i pk" transform="translate(76.37632812499999, 48) scale(0.65)"></path><text x="13" y="86" class="tf">dept_name<tspan x="136.39" class="ty">varchar</tspan></text></svg><svg width="140.7" height="100" x="467.33" y="470.66" id="h3517680912" class="t"><rect height="40" width="140.7" class="th"></rect><text x="13" y="25" class="tht">Titles</text><rect height="60" width="140.7" class="t-bg"></rect><text x="13" y="61" class="tf pk">title_id<tspan x="127.69999999999999" class="ty">varchar</tspan></text><path d="M7,14A2,2 0 0,1 5,12A2,2 0 0,1 7,10A2,2 0 0,1 9,12A2,2 0 0,1 7,14M12.65,10C11.83,7.67 9.61,6 7, 6A6, 6 0 0, 0 1, 12A6, 6 0 0, 0 7, 18C9.61, 18 11.83, 16.33 12.65, 14H17V18H21V14H23V10H12.65Z" class="i pk" transform="translate(67.68632812499999, 48) scale(0.65)"></path><text x="13" y="86" class="tf">title<tspan x="127.69999999999999" class="ty">varchar</tspan></text></svg><svg width="150.72" height="225" x="758.34" y="201.89" id="h3299212598" class="t"><rect height="40" width="150.72" class="th"></rect><text x="13" y="25" class="tht">Employees</text><rect height="185" width="150.72" class="t-bg"></rect><text x="13" y="61" class="tf pk">emp_no<tspan x="137.72" class="ty">int</tspan></text><path d="M7,14A2,2 0 0,1 5,12A2,2 0 0,1 7,10A2,2 0 0,1 9,12A2,2 0 0,1 7,14M12.65,10C11.83,7.67 9.61,6 7, 6A6, 6 0 0, 0 1, 12A6, 6 0 0, 0 7, 18C9.61, 18 11.83, 16.33 12.65, 14H17V18H21V14H23V10H12.65Z" class="i pk" transform="translate(105.046171875, 48) scale(0.65)"></path><text x="13" y="86" class="tf fk">emp_title_id<tspan x="137.72" class="ty">varchar</tspan></text><text x="13" y="111" class="tf">birth_date<tspan x="137.72" class="ty">date</tspan></text><text x="13" y="136" class="tf">first_name<tspan x="137.72" class="ty">varchar</tspan></text><text x="13" y="161" class="tf">last_name<tspan x="137.72" class="ty">varchar</tspan></text><text x="13" y="186" class="tf">sex<tspan x="137.72" class="ty">varchar</tspan></text><text x="13" y="211" class="tf">hire_date<tspan x="137.72" class="ty">date</tspan></text></svg><svg width="102.04" height="100" x="559.89" y="-84" id="h3858243705" class="t"><rect height="40" width="102.04" class="th"></rect><text x="13" y="25" class="tht">Salaries</text><rect height="60" width="102.04" class="t-bg"></rect><text x="13" y="61" class="tf fk">emp_no<tspan x="89.04" class="ty">int</tspan></text><text x="13" y="86" class="tf">salary<tspan x="89.04" class="ty">int</tspan></text></svg><svg width="162.19" height="100" x="213.22" y="-86.89" id="h2951077092" class="t"><rect height="40" width="162.19" class="th"></rect><text x="13" y="25" class="tht">Department_Manager</text><rect height="60" width="162.19" class="t-bg"></rect><text x="13" y="61" class="tf fk">dept_no<tspan x="149.19" class="ty">varchar</tspan></text><text x="13" y="86" class="tf fk">emp_no<tspan x="149.19" class="ty">int</tspan></text></svg><svg width="169.19" height="100" x="226.44" y="197.89" id="h518886252" class="t"><rect height="40" width="169.19" class="th"></rect><text x="13" y="25" class="tht">Department_Employee</text><rect height="60" width="169.19" class="t-bg"></rect><text x="13" y="61" class="tf fk">emp_no<tspan x="156.19" class="ty">int</tspan></text><text x="13" y="86" class="tf fk">dept_no<tspan x="156.19" class="ty">varchar</tspan></text></svg></g></g><text class="qdbd-link" x="10" y="20">www.quickdatabasediagrams.com</text></svg>